<?xml version="1.0" encoding="UTF-8"?>
<!--Generator: Apple Native CoreSVG 232.5-->
<!DOCTYPE svg
PUBLIC "-//W3C//DTD SVG 1.1//EN"
       "http://www.w3.org/Graphics/SVG/1.1/DTD/svg11.dtd">
<svg version="1.1" xmlns="http://www.w3.org/2000/svg" xmlns:xlink="http://www.w3.org/1999/xlink" width="62.168" height="27.6416">
 <g>
  <rect height="27.6416" opacity="0" width="62.168" x="0" y="0"/>
  <path d="M0 13.8135C0 21.46 6.18164 27.627 13.8281 27.627L48.0029 27.627C55.6201 27.627 61.8018 21.4453 61.8018 13.8135C61.8018 6.16699 55.6201 0 48.0029 0C40.3418 0 34.1602 6.16699 34.1602 13.8135C34.1602 16.5527 34.9951 19.1455 36.46 21.3135L25.3564 21.3135C26.8213 19.1455 27.6416 16.5527 27.6416 13.8135C27.6416 6.16699 21.46 0 13.8281 0C6.18164 0 0 6.16699 0 13.8135ZM6.32812 13.7988C6.32812 9.66797 9.68262 6.31348 13.8281 6.31348C17.9736 6.31348 21.3135 9.66797 21.3135 13.7988C21.3135 17.959 17.9736 21.3135 13.8281 21.3135C9.68262 21.3135 6.32812 17.959 6.32812 13.7988ZM40.4883 13.7988C40.4883 9.66797 43.8428 6.31348 47.9883 6.31348C52.1191 6.31348 55.4736 9.66797 55.4736 13.7988C55.4736 17.959 52.1191 21.3135 47.9883 21.3135C43.8428 21.3135 40.4883 17.959 40.4883 13.7988Z" fill="#000000" fill-opacity="1"/>
 </g>
</svg>
