<?xml version="1.0" encoding="UTF-8"?>
<svg width="1153px" height="175px" viewBox="0 0 1153 175" version="1.1" xmlns="http://www.w3.org/2000/svg" xmlns:xlink="http://www.w3.org/1999/xlink">
    <title>rm2000 copy</title>
    <defs>
        <path d="M116.329102,23.9399414 L55.1396484,23.9399414 C48.3408203,23.9399414 44.9414062,28.3476563 44.9414062,37.1630859 L44.9414062,38.9780273 C44.9414062,42.4926758 45.6616211,45.1430664 47.1020508,46.9291992 C48.6577148,48.3120117 51.1352539,49.2626953 54.534668,49.78125 L116.329102,49.78125 C121.629883,49.78125 124.827637,46.9868164 125.922363,41.3979492 L125.922363,31.8046875 C125.922363,27.4833984 122.724609,24.8618164 116.329102,23.9399414 Z M116.76123,82.7094727 C117.222168,83.2280273 117.711914,83.7753906 118.230469,84.3515625 C118.460937,84.6396484 118.720215,84.9277344 119.008301,85.2158203 C138.88623,107.110352 149.257324,118.893066 150.121582,120.563965 C150.294434,120.909668 150.380859,121.226563 150.380859,121.514648 C150.380859,123.070312 147.960937,123.93457 143.121094,124.107422 L118.057617,124.107422 C107.859375,123.819336 101.694336,122.522949 99.5625,120.218262 L66.7207031,85.3022461 L66.375,84.8701172 L59.6337891,77.7832031 C55.5429687,74.0957031 52.0283203,73.0009766 49.0898438,74.4990234 C46.7275391,76.1123047 45.3447266,79.0219727 44.9414062,83.2280273 L44.9414062,113.90918 C44.0771484,120.708008 40.8793945,124.107422 35.3481445,124.107422 L9.59326172,124.107422 C3.19775391,123.012695 0,120.218262 0,115.724121 L0,8.38330078 C0,5.90576172 0.950683594,3.94677734 2.85205078,2.50634766 C4.35009766,0.835449219 6.19384766,0 8.38330078,0 L142.083984,0 C147.672852,0.403320313 150.467285,3.60107422 150.467285,9.59326172 L150.467285,63.5229492 C150.467285,70.7250977 144.475098,74.3261719 132.490723,74.3261719 L120.650391,74.3261719 C112.987305,74.3261719 111.546875,76.9477539 116.329102,82.190918 L116.674805,82.6230469 L116.76123,82.7094727 Z" id="path-1"></path>
        <path d="M394.3445,0 C404.888446,0 412.292254,4.78222656 416.555926,14.3466797 C454.122332,80.3183594 473.510516,115.119141 474.720477,118.749023 C474.720477,122.321289 472.531024,124.107422 468.152118,124.107422 L444.730731,124.107422 C435.223895,123.704102 429.490985,121.745117 427.532,118.230469 L381.207782,38.9780273 C375.907,29.4711914 369.943622,24.4584961 363.317645,23.9399414 L345.168231,23.9399414 C338.369403,24.746582 334.969989,27.3393555 334.969989,31.7182617 L334.969989,112.094238 C334.969989,118.086426 332.578875,122.09082 327.796649,124.107422 L299.016864,124.107422 C293.543231,124.107422 290.345477,120.708008 289.423602,113.90918 L289.423602,31.7182617 C289.423602,27.3393555 286.024188,24.746582 279.22536,23.9399414 L261.075946,23.9399414 C254.507586,24.4584961 248.573016,29.4711914 243.272235,38.9780273 L196.86159,118.230469 C194.902606,121.745117 189.169696,123.704102 179.66286,124.107422 L156.241473,124.107422 C151.862567,124.107422 149.673114,122.321289 149.673114,118.749023 C150.883075,115.119141 170.271258,80.3183594 207.837665,14.3466797 C212.158954,4.78222656 219.562762,0 230.04909,0 L394.3445,0 Z" id="path-2"></path>
        <path d="M474.099157,60.3251953 C474.099157,54.9091797 478.391638,51.3657227 486.976599,49.6948242 L554.475134,49.78125 L591.033239,49.78125 L592.848181,49.6083984 C597.399938,48.3984375 599.791052,45.6904297 600.02152,41.484375 L600.02152,31.8046875 C600.02152,27.4833984 596.823766,24.8618164 590.428259,23.9399414 L486.630895,23.9399414 C478.276403,22.4418945 474.099157,19.2441406 474.099157,14.3466797 L474.099157,10.1982422 C474.099157,4.78222656 478.276403,1.3828125 486.630895,0 L616.183142,0 C619.985876,0 622.578649,2.3046875 623.961462,6.9140625 C624.307165,7.72070313 624.508825,8.55615234 624.566442,9.42041016 L624.566442,63.7822266 C624.566442,69.1982422 620.273962,72.7416992 611.689001,74.4125977 L544.190466,74.3261719 L507.63236,74.3261719 L505.817419,74.4990234 C501.265661,75.7089844 498.874548,78.4169922 498.644079,82.6230469 L498.644079,92.3027344 C498.644079,96.6240234 501.841833,99.2456055 508.237341,100.16748 L612.034704,100.16748 C620.389196,101.665527 624.566442,104.863281 624.566442,109.760742 L624.566442,113.90918 C624.566442,119.325195 620.389196,122.724609 612.034704,124.107422 L482.482458,124.107422 C478.679724,124.107422 476.08695,121.802734 474.704138,117.193359 C474.358434,116.386719 474.156774,115.55127 474.099157,114.687012 L474.099157,60.3251953 Z" id="path-3"></path>
        <path d="M664.269732,24.112793 C657.874224,25.034668 654.67647,27.65625 654.67647,31.9775391 L654.67647,34.0517578 C654.67647,34.2246094 654.647661,34.3686523 654.590044,34.4838867 L654.590044,89.7963867 C654.647661,89.9116211 654.67647,90.0556641 654.67647,90.2285156 L654.67647,92.3027344 C654.67647,96.6240234 657.874224,99.2456055 664.269732,100.16748 L746.287798,100.16748 C752.683306,99.2456055 755.88106,96.6240234 755.88106,92.3027344 L755.88106,90.2285156 C755.88106,90.0556641 755.909869,89.9116211 755.967486,89.7963867 L755.967486,34.4838867 C755.909869,34.3686523 755.88106,34.2246094 755.88106,34.0517578 L755.88106,31.9775391 C755.88106,27.65625 752.683306,25.034668 746.287798,24.112793 L664.269732,24.112793 Z M772.129107,0.172851562 C775.931841,0.172851562 778.524615,2.47753906 779.907427,7.08691406 C780.25313,7.89355469 780.45479,8.72900391 780.512408,9.59326172 L780.512408,114.687012 C780.45479,115.55127 780.25313,116.386719 779.907427,117.193359 C778.524615,121.802734 775.931841,124.107422 772.129107,124.107422 L638.428423,124.107422 C634.625689,124.107422 632.032915,121.802734 630.650103,117.193359 C630.3044,116.386719 630.10274,115.55127 630.045122,114.687012 L630.045122,9.59326172 C630.10274,8.72900391 630.3044,7.89355469 630.650103,7.08691406 C632.032915,2.47753906 634.625689,0.172851562 638.428423,0.172851562 L772.129107,0.172851562 Z" id="path-4"></path>
        <path d="M828.115697,24.112793 C821.720189,25.034668 818.522435,27.65625 818.522435,31.9775391 L818.522435,34.0517578 C818.522435,34.2246094 818.493627,34.3686523 818.43601,34.4838867 L818.43601,89.7963867 C818.493627,89.9116211 818.522435,90.0556641 818.522435,90.2285156 L818.522435,92.3027344 C818.522435,96.6240234 821.720189,99.2456055 828.115697,100.16748 L910.133763,100.16748 C916.529271,99.2456055 919.727025,96.6240234 919.727025,92.3027344 L919.727025,90.2285156 C919.727025,90.0556641 919.755834,89.9116211 919.813451,89.7963867 L919.813451,34.4838867 C919.755834,34.3686523 919.727025,34.2246094 919.727025,34.0517578 L919.727025,31.9775391 C919.727025,27.65625 916.529271,25.034668 910.133763,24.112793 L828.115697,24.112793 Z M935.975072,0.172851562 C939.777806,0.172851562 942.37058,2.47753906 943.753392,7.08691406 C944.099096,7.89355469 944.300756,8.72900391 944.358373,9.59326172 L944.358373,114.687012 C944.300756,115.55127 944.099096,116.386719 943.753392,117.193359 C942.37058,121.802734 939.777806,124.107422 935.975072,124.107422 L802.274388,124.107422 C798.471654,124.107422 795.878881,121.802734 794.496068,117.193359 C794.150365,116.386719 793.948705,115.55127 793.891088,114.687012 L793.891088,9.59326172 C793.948705,8.72900391 794.150365,7.89355469 794.496068,7.08691406 C795.878881,2.47753906 798.471654,0.172851562 802.274388,0.172851562 L935.975072,0.172851562 Z" id="path-5"></path>
        <path d="M985.861662,24.112793 C979.466155,25.034668 976.268401,27.65625 976.268401,31.9775391 L976.268401,34.0517578 C976.268401,34.2246094 976.239592,34.3686523 976.181975,34.4838867 L976.181975,89.7963867 C976.239592,89.9116211 976.268401,90.0556641 976.268401,90.2285156 L976.268401,92.3027344 C976.268401,96.6240234 979.466155,99.2456055 985.861662,100.16748 L1067.87973,100.16748 C1074.27524,99.2456055 1077.47299,96.6240234 1077.47299,92.3027344 L1077.47299,90.2285156 C1077.47299,90.0556641 1077.5018,89.9116211 1077.55942,89.7963867 L1077.55942,34.4838867 C1077.5018,34.3686523 1077.47299,34.2246094 1077.47299,34.0517578 L1077.47299,31.9775391 C1077.47299,27.65625 1074.27524,25.034668 1067.87973,24.112793 L985.861662,24.112793 Z M1093.72104,0.172851562 C1097.52377,0.172851562 1100.11655,2.47753906 1101.49936,7.08691406 C1101.84506,7.89355469 1102.04672,8.72900391 1102.10434,9.59326172 L1102.10434,114.687012 C1102.04672,115.55127 1101.84506,116.386719 1101.49936,117.193359 C1100.11655,121.802734 1097.52377,124.107422 1093.72104,124.107422 L960.020354,124.107422 C956.217619,124.107422 953.624846,121.802734 952.242033,117.193359 C951.89633,116.386719 951.69467,115.55127 951.637053,114.687012 L951.637053,9.59326172 C951.69467,8.72900391 951.89633,7.89355469 952.242033,7.08691406 C953.624846,2.47753906 956.217619,0.172851562 960.020354,0.172851562 L1093.72104,0.172851562 Z" id="path-6"></path>
    </defs>
    <g id="Branding" stroke="none" stroke-width="1" fill="none" fill-rule="evenodd">
        <g id="Extra-Large-Copy-10" transform="translate(-384, -451)" fill-rule="nonzero">
            <g id="rm2000-copy" transform="translate(409.3213, 476.8926)">
                <g id="Shape">
                    <path stroke="#000000" stroke-width="25" d="M142.473993,-12.5 C149.525271,-12.1111562 154.403817,-9.39244961 157.78392,-5.52449694 C160.848544,-2.01755606 162.967285,2.84569906 162.967285,9.59326172 L162.967285,63.5229492 C162.967285,71.9314135 159.36985,78.1580288 152.411915,82.3394801 C148.78988,84.5161838 143.765269,86.1344966 137.143767,86.6510168 L137.529885,87.0876986 C152.549372,103.855704 160.26398,113.100232 161.193654,114.764331 L161.224303,114.821178 C162.491168,117.352287 162.880859,119.559896 162.880859,121.514648 C162.880859,125.164434 161.646442,128.510109 158.765959,131.390593 C157.414793,132.741758 155.515426,134.120898 152.770123,135.101364 C150.684195,135.846338 147.567762,136.476223 143.32824,136.607422 L117.886823,136.607422 C101.656877,136.177728 93.5539447,132.130814 90.386257,128.706286 L57.441,93.681 L57.4414062,114.621382 C56.7195949,121.559081 54.3304473,126.460045 51.2447032,129.857414 L50.9996623,130.122513 C47.1771794,134.186053 42.0837424,136.607422 35.3481445,136.607422 L8.63107271,136.607422 C1.98492596,135.665682 -2.66879928,133.362869 -5.82698717,130.603011 C-10.1789156,126.799975 -12.5,121.885792 -12.5,115.724121 L-12.5,8.38330078 C-12.5,2.08531892 -10.1451668,-2.91459883 -5.6283081,-6.71427827 C-1.76206716,-10.6047252 2.92311809,-12.5 8.38330078,-12.5 L142.473993,-12.5 Z M113.422,36.439 L57.363397,36.4399414 L57.4024012,36.68236 C57.425515,36.8441355 57.4414062,37.0056174 57.4414062,37.1630859 L57.441,37.281 L113.422363,37.28125 L113.422,36.439 Z" fill="#3A2F2E" fill-rule="evenodd"></path>
                    <path stroke="#DBD5D5" stroke-width="11" d="M142.267717,-5.5 C146.925902,-5.2095186 150.244777,-3.51385679 152.512942,-0.91832748 C154.643818,1.5200976 155.967285,4.94652165 155.967285,9.59326172 L155.967285,63.5229492 C155.967285,69.2392751 153.545507,73.491437 148.806203,76.3395763 C145.180541,78.51846 139.794082,79.8261719 132.490723,79.8261719 L121.557,79.826 L121.80988,80.1063195 L122.063041,80.3880957 L122.318587,80.6722565 C122.635161,81.0531317 122.760042,81.1893869 122.897388,81.326733 C143.573033,104.090389 154.116586,116.316099 155.006779,118.037139 C155.660997,119.34442 155.880859,120.493229 155.880859,121.514648 C155.880859,123.338347 155.253019,125.004038 153.816211,126.440845 C153.052304,127.204752 151.962491,127.95677 150.415768,128.50917 C148.820936,129.078753 146.434284,129.499683 143.216099,129.607422 L117.980973,129.607422 C105.169989,129.25495 98.153927,126.765169 95.5478783,123.977645 L62.5635248,88.910069 L62.2274721,88.4900031 L55.8002612,81.7331917 C54.5379544,80.6103251 53.3983944,79.7916702 52.2940774,79.4477026 C50.9070207,80.2391849 50.6204975,81.7489069 50.4414062,83.4992515 L50.4414062,114.239975 C49.8637768,119.262705 48.2041678,122.877889 45.900994,125.326308 C43.3237304,128.066102 39.8605576,129.607422 35.3481445,129.607422 L9.14748818,129.607422 C4.45019135,128.874717 1.06166701,127.326638 -1.22081771,125.332034 C-4.0310373,122.876257 -5.5,119.693616 -5.5,115.724121 L-5.5,8.38330078 C-5.5,4.22365436 -3.93037848,0.926414222 -0.881701927,-1.55468554 C1.65939708,-4.20059808 4.75463933,-5.5 8.38330078,-5.5 L142.267717,-5.5 Z M115.920748,29.4399414 L55.1396484,29.4399414 C53.7714398,29.4399414 52.5780483,29.6556661 51.8461625,30.6046366 C50.7221291,32.0620698 50.4414062,34.3286857 50.4414062,37.1630859 L50.4414062,38.9780273 C50.4414062,40.6639842 50.5406994,42.0958287 51.1272894,43.1033838 C52.0317306,43.7062854 53.3538536,44.0212972 54.9629662,44.28125 L116.329102,44.28125 C117.427026,44.28125 118.392843,44.1478126 119.08387,43.5439425 C119.791248,42.9257832 120.162116,41.9718015 120.422363,40.8276832 L120.422363,31.8046875 C120.422363,31.4264206 120.329938,31.090983 120.037068,30.8508828 C119.10948,30.0904275 117.688712,29.7144929 115.920748,29.4399414 Z"></path>
                </g>
                <g id="Path">
                    <path stroke="#000000" stroke-width="25" d="M347.469989,112.094238 C347.469989,117.7003 346.126382,122.286562 343.908917,126.000148 C340.970357,130.92135 336.431311,134.576546 329.968998,136.607422 L299.016864,136.607422 C292.333003,136.607422 287.245817,134.20176 283.408559,130.122513 C280.217373,126.730081 277.712951,121.768795 276.923602,114.669254 L276.923,36.439 L261.72731,36.4399414 C258.542391,36.9333511 256.562509,40.7985559 254.298886,44.8695295 L254.124176,45.1830337 L207.694808,124.467449 C204.473771,130.113374 196.963504,135.94445 179.916359,136.607422 L156.241473,136.607422 C150.342718,136.607422 146.264254,134.779152 143.413619,132.453635 C139.680464,129.408166 137.173114,125.072557 137.173114,118.749023 C137.173114,118.350329 137.183081,117.959537 137.202966,117.574258 C137.466775,116.153266 137.670862,115.227309 137.814572,114.796176 C139.04668,111.099854 158.551814,75.6429744 196.738123,8.56673707 C199.983561,1.65803976 204.442919,-3.42136271 209.849319,-6.91343437 C215.422418,-10.5131789 222.115436,-12.5 230.04909,-12.5 L394.3445,-12.5 C402.314337,-12.5 409.020393,-10.5092988 414.587484,-6.91343437 C420.037056,-3.39347772 424.507795,1.73386307 427.73382,8.71542956 C465.870397,75.6950009 485.347815,111.102567 486.579018,114.796176 C486.722868,115.227727 486.927211,116.155062 487.19101,117.578697 C487.210548,117.96105 487.220477,118.351101 487.220477,118.749023 C487.220477,125.072557 484.713127,129.408166 480.979971,132.453635 C478.129337,134.779152 474.050872,136.607422 468.152118,136.607422 L444.477231,136.607422 C427.424291,135.944224 419.914714,130.109408 416.695499,124.46169 L370.353073,45.1780991 C368.005954,40.9752135 365.975425,36.9421309 362.673983,36.4399414 L347.469,36.439 Z" fill="#3A2F2E" fill-rule="evenodd"></path>
                    <path stroke="#DBD5D5" stroke-width="11" d="M394.3445,-5.5 C400.803533,-5.5 406.266883,-3.95457976 410.78947,-1.03337596 C415.26976,1.86050756 418.877773,6.13559037 421.494909,11.9052927 C459.298851,78.2967838 478.719149,113.352513 479.938235,117.009771 C480.011555,117.229729 480.100349,117.580049 480.204474,118.0609 C480.215098,118.286032 480.220477,118.515382 480.220477,118.749023 C480.220477,122.531613 478.81072,125.189456 476.555084,127.02958 C474.687758,128.552925 471.973663,129.607422 468.152118,129.607422 L444.616423,129.607422 C431.788568,129.084309 425.278127,125.413703 422.760744,120.966738 L376.430713,41.7043542 C372.448063,34.5483379 368.240102,29.9463147 363.07868,29.4399414 L345.503729,29.4399414 C343.49756,29.6942026 341.898975,30.0664376 340.85502,30.8626743 C340.576895,31.0748034 340.469989,31.3707684 340.469989,31.7182617 L340.469989,112.094238 C340.469989,116.238718 339.544046,119.656195 337.898849,122.411403 C335.943702,125.685686 332.957817,128.128276 328.822507,129.607422 L299.016864,129.607422 C294.543348,129.607422 291.090992,128.073013 288.507227,125.326308 C286.209736,122.88393 284.539196,119.274842 283.923602,114.26205 L283.923602,31.7182617 C283.923602,31.3707684 283.816696,31.0748034 283.538571,30.8626743 C282.494616,30.0664376 280.896031,29.6942026 278.889862,29.4399414 L261.31739,29.4399414 C256.20354,29.9479103 252.02599,34.5587794 248.048227,41.7062868 L201.631534,120.969058 C199.1132,125.41498 192.602793,129.0844 179.777168,129.607422 L156.241473,129.607422 C152.419927,129.607422 149.705832,128.552925 147.838507,127.02958 C145.582871,125.189456 144.173114,122.531613 144.173114,118.749023 C144.173114,118.514228 144.178546,118.283766 144.189577,118.058136 C144.293563,117.578782 144.382169,117.229331 144.455356,117.009771 C145.675186,113.350278 165.118486,78.2539192 202.962119,11.7830222 C205.598271,6.07406832 209.200662,1.8387933 213.647334,-1.03337596 C218.172563,-3.95628698 223.62211,-5.5 230.04909,-5.5 L394.3445,-5.5 Z"></path>
                </g>
                <g id="Path">
                    <path stroke="#000000" stroke-width="25" d="M616.183142,-12.5 C621.420369,-12.5 625.743461,-10.7615312 629.28432,-7.61410086 C631.928776,-5.26347328 634.246162,-1.93386079 635.746902,2.71886985 C636.537311,4.77574163 636.974371,6.90316182 637.066442,9.09913287 L637.066442,63.7822266 C637.066442,70.3515725 634.529941,75.8282069 629.304756,80.1416147 C625.699467,83.1177922 620.340293,85.6346652 612.804538,86.9140362 L544.182463,86.8261719 L511.144,86.826 L511.144,87.667 L613.073276,87.6674805 C620.142152,88.7776502 625.243533,90.9627746 628.728412,93.5357308 L629.031715,93.7637454 C634.534833,97.9764776 637.066442,103.378032 637.066442,109.760742 L637.066442,113.90918 C637.066442,120.59329 634.474869,126.023861 629.323465,130.216038 C625.744687,133.128423 620.44615,135.538291 612.988724,136.607422 L482.482458,136.607422 C477.24523,136.607422 472.922138,134.868953 469.381279,131.721523 C466.736823,129.370895 464.419437,126.041283 462.918697,121.388552 C462.128289,119.33168 461.691228,117.20426 461.599157,115.008289 L461.599157,60.3251953 C461.599157,53.7558494 464.135659,48.279215 469.360844,43.9658072 C472.966132,40.9896296 478.325307,38.4727567 485.861062,37.1933856 L554.483136,37.28125 L587.521,37.281 L587.521,36.439 L485.592324,36.4399414 C478.523447,35.3297717 473.422067,33.1446473 469.937188,30.571691 L469.633885,30.3436765 C464.130766,26.1309442 461.599157,20.7293895 461.599157,14.3466797 L461.599157,10.1982422 C461.599157,3.51413183 464.19073,-1.91643923 469.342135,-6.10861638 C472.920913,-9.0210014 478.219449,-11.4308695 485.676876,-12.5 L616.183142,-12.5 Z" fill="#3A2F2E" fill-rule="evenodd"></path>
                    <path stroke="#DBD5D5" stroke-width="11" d="M616.183142,-5.5 C619.552287,-5.5 622.349819,-4.41241748 624.633773,-2.38223563 C626.521318,-0.704418026 628.100135,1.72278943 629.145105,5.05745665 C629.686482,6.41198621 629.992324,7.8135741 630.066442,9.26130986 L630.066442,63.7822266 C630.066442,68.1892231 628.349434,71.8532685 624.848458,74.7433359 C622.062203,77.0433989 617.902952,78.8721068 612.198953,79.9132551 L544.190466,79.8261719 L507.893674,79.8261719 L506.827756,79.9276879 C505.956888,80.1881134 505.224681,80.5211314 504.733094,81.0778694 C504.334389,81.5294147 504.192544,82.1255274 504.144079,82.7940528 L504.144079,92.3027344 C504.144079,92.6810012 504.236504,93.0164389 504.529374,93.2565391 C505.456962,94.0169944 506.87773,94.392929 508.645695,94.6674805 L612.50893,94.6674805 C618.036196,95.5991719 622.073392,97.2526302 624.776719,99.3220734 C628.36772,102.071047 630.066442,105.581061 630.066442,109.760742 L630.066442,113.90918 C630.066442,118.366673 628.341336,121.990284 624.905089,124.786678 C622.162651,127.018455 618.078346,128.740272 612.471585,129.607422 L482.482458,129.607422 C479.113312,129.607422 476.315781,128.519839 474.031826,126.489658 C472.144281,124.81184 470.565464,122.384632 469.520495,119.049965 C468.979118,117.695436 468.673275,116.293848 468.599157,114.846112 L468.599157,60.3251953 C468.599157,55.9181987 470.316165,52.2541534 473.817141,49.364086 C476.603396,47.064023 480.762647,45.2353151 486.466646,44.1941667 L554.475134,44.28125 L590.771926,44.28125 L591.837844,44.179734 C592.708711,43.9193085 593.440918,43.5862904 593.932506,43.0295525 C594.331211,42.5780072 594.473056,41.9818945 594.52152,41.3133691 L594.52152,31.8046875 C594.52152,31.4264206 594.429095,31.090983 594.136226,30.8508828 C593.208637,30.0904275 591.787869,29.7144929 590.019905,29.4399414 L486.156669,29.4399414 C480.629404,28.5082499 476.592207,26.8547917 473.888881,24.7853485 C470.297879,22.0363752 468.599157,18.5263611 468.599157,14.3466797 L468.599157,10.1982422 C468.599157,5.74074926 470.324264,2.11713783 473.760511,-0.679256051 C476.502948,-2.91103299 480.587254,-4.63285028 486.194015,-5.5 L616.183142,-5.5 Z"></path>
                </g>
                <g id="Shape">
                    <path stroke="#000000" stroke-width="25" d="M772.129107,-12.3271484 C777.366334,-12.3271484 781.689426,-10.5886796 785.230286,-7.4412493 C787.874742,-5.09062172 790.192127,-1.76100923 791.692868,2.89172141 C792.483276,4.9485932 792.920337,7.07601338 793.012408,9.27198444 L793.012408,115.008288 C792.920176,117.208108 792.481739,119.33906 791.688782,121.400136 C790.187998,126.047215 787.872386,129.372989 785.230286,131.721523 C781.689426,134.868953 777.366334,136.607422 772.129107,136.607422 L638.428423,136.607422 C633.191195,136.607422 628.868103,134.868953 625.327244,131.721523 C622.682788,129.370895 620.365403,126.041283 618.864662,121.388552 C618.074254,119.33168 617.637193,117.20426 617.545122,115.008289 L617.545122,9.27198586 C617.637354,7.07216524 618.075791,4.94121322 618.868748,2.88013713 C620.369532,-1.76694133 622.685144,-5.09271596 625.327244,-7.4412493 C628.868103,-10.5886796 633.191195,-12.3271484 638.428423,-12.3271484 L772.129107,-12.3271484 Z M743.385,36.612 L667.093,36.612 L667.172,87.667 L743.464,87.667 L743.385,36.612 Z" fill="#3A2F2E" fill-rule="evenodd"></path>
                    <path stroke="#DBD5D5" stroke-width="11" d="M772.129107,-5.32714844 C775.498253,-5.32714844 778.295784,-4.23956592 780.579739,-2.20938407 C782.467284,-0.531566463 784.046101,1.89564099 785.09107,5.23030822 C785.632447,6.58483778 785.93829,7.98642566 786.012408,9.43416143 L786.012408,114.846112 C785.938174,116.296116 785.631484,117.699798 785.088617,119.056887 C784.043725,122.388285 782.465863,124.813102 780.579739,126.489658 C778.295784,128.519839 775.498253,129.607422 772.129107,129.607422 L638.428423,129.607422 C635.059277,129.607422 632.261746,128.519839 629.977791,126.489658 C628.090246,124.81184 626.511429,122.384632 625.46646,119.049965 C624.925083,117.695436 624.61924,116.293848 624.545122,114.846112 L624.545122,9.43416172 C624.619356,7.984157 624.926046,6.58047557 625.468913,5.22338648 C626.513805,1.89198873 628.091667,-0.53282893 629.977791,-2.20938407 C632.261746,-4.23956592 635.059277,-5.32714844 638.428423,-5.32714844 L772.129107,-5.32714844 Z M745.879444,29.612793 L664.678086,29.612793 C662.910121,29.8873444 661.489353,30.263279 660.561765,31.0237343 C660.251607,31.2780077 660.166257,31.6392063 660.177414,32.0449634 L660.090191,34.5744238 L660.176463,90.2199885 L660.17647,92.3027344 C660.17647,92.6810012 660.268895,93.0164389 660.561765,93.2565391 C661.489353,94.0169944 662.910121,94.392929 664.678086,94.6674805 L745.879444,94.6674805 C747.647409,94.392929 749.068177,94.0169944 749.995765,93.2565391 C750.305923,93.0022657 750.391273,92.6410671 750.380116,92.23531 L750.467339,89.7058497 L750.381067,34.0602849 L750.38106,31.9775391 C750.38106,31.5992722 750.288635,31.2638346 749.995765,31.0237343 C749.068177,30.263279 747.647409,29.8873444 745.879444,29.612793 Z"></path>
                </g>
                <g id="Shape">
                    <path stroke="#000000" stroke-width="25" d="M935.975072,-12.3271484 C941.2123,-12.3271484 945.535392,-10.5886796 949.076251,-7.4412493 C951.720707,-5.09062172 954.038093,-1.76100923 955.538833,2.89172141 C956.329241,4.9485932 956.766302,7.07601338 956.858373,9.27198444 L956.858373,115.008288 C956.766141,117.208108 956.327705,119.33906 955.534748,121.400136 C954.033963,126.047215 951.718351,129.372989 949.076251,131.721523 C945.535392,134.868953 941.2123,136.607422 935.975072,136.607422 L802.274388,136.607422 C797.037161,136.607422 792.714069,134.868953 789.17321,131.721523 C786.528754,129.370895 784.211368,126.041283 782.710628,121.388552 C781.920219,119.33168 781.483159,117.20426 781.391088,115.008289 L781.391088,9.27198586 C781.483319,7.07216524 781.921756,4.94121322 782.714713,2.88013713 C784.215497,-1.76694133 786.53111,-5.09271596 789.17321,-7.4412493 C792.714069,-10.5886796 797.037161,-12.3271484 802.274388,-12.3271484 L935.975072,-12.3271484 Z M907.231,36.612 L830.939,36.612 L831.018,87.667 L907.31,87.667 L907.231,36.612 Z" fill="#3A2F2E" fill-rule="evenodd"></path>
                    <path stroke="#DBD5D5" stroke-width="11" d="M935.975072,-5.32714844 C939.344218,-5.32714844 942.141749,-4.23956592 944.425704,-2.20938407 C946.313249,-0.531566463 947.892066,1.89564099 948.937035,5.23030822 C949.478412,6.58483778 949.784255,7.98642566 949.858373,9.43416143 L949.858373,114.846112 C949.784139,116.296116 949.477449,117.699798 948.934582,119.056887 C947.88969,122.388285 946.311829,124.813102 944.425704,126.489658 C942.141749,128.519839 939.344218,129.607422 935.975072,129.607422 L802.274388,129.607422 C798.905243,129.607422 796.107711,128.519839 793.823756,126.489658 C791.936212,124.81184 790.357395,122.384632 789.312425,119.049965 C788.771048,117.695436 788.465206,116.293848 788.391088,114.846112 L788.391088,9.43416172 C788.465321,7.984157 788.772012,6.58047557 789.314878,5.22338648 C790.359771,1.89198873 791.937632,-0.53282893 793.823756,-2.20938407 C796.107711,-4.23956592 798.905243,-5.32714844 802.274388,-5.32714844 L935.975072,-5.32714844 Z M909.725409,29.612793 L828.524051,29.612793 C826.756087,29.8873444 825.335319,30.263279 824.40773,31.0237343 C824.097573,31.2780077 824.012222,31.6392063 824.023379,32.0449634 L823.936157,34.5744238 L824.022429,90.2199885 L824.022435,92.3027344 C824.022435,92.6810012 824.114861,93.0164389 824.40773,93.2565391 C825.335319,94.0169944 826.756087,94.392929 828.524051,94.6674805 L909.725409,94.6674805 C911.493374,94.392929 912.914142,94.0169944 913.84173,93.2565391 C914.151888,93.0022657 914.237238,92.6410671 914.226081,92.23531 L914.313304,89.7058497 L914.227032,34.0602849 L914.227025,31.9775391 C914.227025,31.5992722 914.1346,31.2638346 913.84173,31.0237343 C912.914142,30.263279 911.493374,29.8873444 909.725409,29.612793 Z"></path>
                </g>
                <g id="Shape">
                    <path stroke="#000000" stroke-width="25" d="M1093.72104,-12.3271484 C1098.95827,-12.3271484 1103.28136,-10.5886796 1106.82222,-7.4412493 C1109.46667,-5.09062172 1111.78406,-1.76100923 1113.2848,2.89172141 C1114.07521,4.9485932 1114.51227,7.07601338 1114.60434,9.27198444 L1114.60434,115.008288 C1114.51211,117.208108 1114.07367,119.33906 1113.28071,121.400136 C1111.77993,126.047215 1109.46432,129.372989 1106.82222,131.721523 C1103.28136,134.868953 1098.95827,136.607422 1093.72104,136.607422 L960.020354,136.607422 C954.783126,136.607422 950.460034,134.868953 946.919175,131.721523 C944.274719,129.370895 941.957333,126.041283 940.456593,121.388552 C939.666185,119.33168 939.229124,117.20426 939.137053,115.008289 L939.137053,9.27198586 C939.229284,7.07216524 939.667721,4.94121322 940.460678,2.88013713 C941.961463,-1.76694133 944.277075,-5.09271596 946.919175,-7.4412493 C950.460034,-10.5886796 954.783126,-12.3271484 960.020354,-12.3271484 L1093.72104,-12.3271484 Z M1064.976,36.612 L988.685,36.612 L988.764,87.667 L1065.056,87.667 L1064.976,36.612 Z" fill="#3A2F2E" fill-rule="evenodd"></path>
                    <path stroke="#DBD5D5" stroke-width="11" d="M1093.72104,-5.32714844 C1097.09018,-5.32714844 1099.88771,-4.23956592 1102.17167,-2.20938407 C1104.05921,-0.531566463 1105.63803,1.89564099 1106.683,5.23030822 C1107.22438,6.58483778 1107.53022,7.98642566 1107.60434,9.43416143 L1107.60434,114.846112 C1107.5301,116.296116 1107.22341,117.699798 1106.68055,119.056887 C1105.63566,122.388285 1104.05779,124.813102 1102.17167,126.489658 C1099.88771,128.519839 1097.09018,129.607422 1093.72104,129.607422 L960.020354,129.607422 C956.651208,129.607422 953.853676,128.519839 951.569722,126.489658 C949.682177,124.81184 948.10336,122.384632 947.05839,119.049965 C946.517014,117.695436 946.211171,116.293848 946.137053,114.846112 L946.137053,9.43416172 C946.211287,7.984157 946.517977,6.58047557 947.060844,5.22338648 C948.105736,1.89198873 949.683597,-0.53282893 951.569722,-2.20938407 C953.853676,-4.23956592 956.651208,-5.32714844 960.020354,-5.32714844 L1093.72104,-5.32714844 Z M1067.47137,29.612793 L986.270016,29.612793 C984.502052,29.8873444 983.081284,30.263279 982.153696,31.0237343 C981.843538,31.2780077 981.758187,31.6392063 981.769345,32.0449634 L981.682122,34.5744238 L981.768394,90.2199885 L981.768401,92.3027344 C981.768401,92.6810012 981.860826,93.0164389 982.153696,93.2565391 C983.081284,94.0169944 984.502052,94.392929 986.270016,94.6674805 L1067.47137,94.6674805 C1069.23934,94.392929 1070.66011,94.0169944 1071.5877,93.2565391 C1071.89785,93.0022657 1071.9832,92.6410671 1071.97205,92.23531 L1072.05927,89.7058497 L1071.973,34.0602849 L1071.97299,31.9775391 C1071.97299,31.5992722 1071.88057,31.2638346 1071.5877,31.0237343 C1070.66011,30.263279 1069.23934,29.8873444 1067.47137,29.612793 Z"></path>
                </g>
            </g>
        </g>
    </g>
</svg>